<?xml version="1.0" encoding="utf-8"?>
<!-- Generator: Adobe Illustrator 16.0.0, SVG Export Plug-In . SVG Version: 6.00 Build 0)  -->
<!DOCTYPE svg PUBLIC "-//W3C//DTD SVG 1.1//EN" "http://www.w3.org/Graphics/SVG/1.1/DTD/svg11.dtd">
<svg version="1.1" xmlns="http://www.w3.org/2000/svg" xmlns:xlink="http://www.w3.org/1999/xlink" x="0px" y="0px" width="144px"
	 height="144px" viewBox="0 0 144 144" enable-background="new 0 0 144 144" xml:space="preserve">
<g id="Layer_1">
</g>
<g id="Layer_2_copy">
	<g>
		
			<text transform="matrix(1 0 0 1 14.8174 133.0264)" fill="#E6E7E8" stroke="#58595B" stroke-width="0.2" stroke-linejoin="round" stroke-miterlimit="10" font-family="'Futura-Medium'" font-size="12.0671">LORENZO STUDIOS</text>
	</g>
	<g>
		<path fill="#E6E7E8" d="M67.09,113.06c-28.091,0-50.944-22.853-50.944-50.943c0-28.091,22.853-50.944,50.944-50.944
			s50.943,22.853,50.943,50.944c0.001,0.023-0.021,1.556-1.069,2.59c-0.915,0.903-2.366,1.289-4.851,1.289
			c-0.585,0-1.212-0.02-1.881-0.054c-2.211-0.109-4.097-2.244-6.094-4.504c-1.545-1.75-3.296-3.732-4.533-3.732
			c-1.39,0-3.065,2.034-4.544,3.827c-1.79,2.17-3.638,4.41-5.892,4.41h-6.556c-0.084,0-0.159,0.053-0.188,0.132
			c-0.341,0.948-0.67,3.275-0.91,4.975c-0.72,5.093-1.339,9.469-3.934,9.469c-2.771,0-3.386-5.422-4.203-25.442
			c-0.294-7.193-0.659-16.136-1.418-20.102c-0.018-0.094-0.1-0.162-0.195-0.163c0,0-0.001,0-0.001,0
			c-0.095,0-0.177,0.067-0.196,0.16c-0.71,3.46-1.167,10.711-1.5,16.005c-1.024,16.272-1.669,20.679-4.25,20.679
			c-1.359,0-2.318-1.402-3.428-3.026c-1.067-1.564-1.881-2.618-2.391-2.685c-0.055,0-0.109,0-0.162,0
			c-2.007,0-2.933,0.03-3.912,0.063c-1.04,0.033-2.079,0.066-4.317,0.066c-1.807,0-3.339-1.551-4.821-3.051
			c-1.259-1.276-2.362-2.332-3.108-2.332c-0.679,0-1.861,1.093-3.116,2.311c-2.018,1.959-3.773,3.05-4.943,3.072
			c-1.053,0.02-2.021,0.036-2.907,0.036c-5.043,0-7.345-0.476-7.84-3.326c1.468,1.037,3.307,1.522,5.737,1.522
			c0.876,0,1.702-0.061,2.43-0.115c0.56-0.042,1.058-0.079,1.47-0.079c0,0,0,0,0.001,0c1.654,0,3.007-1.367,3.995-2.365
			c0.149-0.151,0.292-0.294,0.426-0.425c1.578-1.532,3.064-2.975,4.749-2.975c1.786,0,3.305,1.54,4.773,3.028
			c1.091,1.104,2.326,2.355,3.155,2.355c2.228,0,3.252-0.034,4.242-0.066c0.977-0.032,1.987-0.065,4.129-0.065
			c1.813,0,3.1,1.883,4.344,3.705c0.359,0.524,0.774,1.13,1.124,1.55c0.039,0.046,0.095,0.072,0.154,0.072
			c0.011,0,0.022-0.001,0.034-0.003c0.07-0.012,0.129-0.061,0.154-0.127c0.973-2.617,1.531-11.452,1.938-17.902
			c0.992-15.748,1.609-19.994,4.067-19.994c2.596,0,3.139,4.84,3.924,24.079c0.309,7.552,0.773,18.932,1.809,22.374
			c0.024,0.082,0.1,0.14,0.186,0.143c0.002,0,0.004,0,0.006,0c0.083,0,0.158-0.052,0.188-0.131c0.568-1.537,1.018-4.718,1.286-6.619
			c0.651-4.608,1.01-7.146,2.863-7.146h7.114c1.149,0,2.705-1.888,4.078-3.553c1.9-2.305,3.862-4.684,6.357-4.684
			c2.294,0,4.324,2.299,6.288,4.523c1.514,1.713,3.229,3.655,4.454,3.715c0.627,0.031,1.18,0.047,1.669,0.047
			c2.547,0,3.542-0.418,3.674-1.542c-0.044-26.804-21.848-48.592-48.601-48.592c-26.799,0-48.602,21.803-48.602,48.602
			c0,26.798,21.803,48.601,48.602,48.601h3.062c4.245-1.056,6.517-2.775,9.146-4.767c0.758-0.572,1.541-1.165,2.404-1.766
			c1.975-1.373,3.743-2.068,5.256-2.068c0.574,0,1.101,0.103,1.565,0.307c0.025,0.011,0.053,0.017,0.08,0.017
			c0.049,0,0.098-0.019,0.135-0.053c1.984-1.811,4.514-4.008,7.734-6.717l1.765-1.485c10.858-9.144,27.269-22.96,29.538-22.96
			c0.248,0.776-4.717,6.05-29.342,26.776c-3.156,2.657-5.826,4.835-7.936,6.472c-0.065,0.051-0.093,0.138-0.068,0.217
			c0.498,1.615-0.577,3.316-3.289,5.201c-1.45,1.008-4.359,1.812-8.192,2.263C76.354,112.567,72.196,113.06,67.09,113.06z"/>
		<path fill="#58595B" d="M67.09,11.373c27.98,0,50.743,22.764,50.744,50.76c0.007,0.278-0.15,1.583-1.011,2.432
			c-0.874,0.863-2.283,1.231-4.71,1.231c-0.539,0-1.151-0.018-1.871-0.054c-2.127-0.105-3.985-2.209-5.954-4.438
			c-1.572-1.78-3.354-3.798-4.683-3.798c-1.484,0-3.118,1.982-4.702,3.904c-1.757,2.13-3.574,4.333-5.733,4.333h-6.556
			c-0.169,0-0.319,0.106-0.376,0.265c-0.349,0.967-0.68,3.307-0.925,5.039c-0.703,4.976-1.311,9.271-3.731,9.271
			c-2.582,0-3.204-5.688-4.004-25.257c-0.294-7.193-0.659-16.145-1.42-20.125c-0.036-0.188-0.2-0.324-0.391-0.325
			c0,0-0.001,0-0.002,0c-0.19,0-0.354,0.133-0.392,0.319c-0.713,3.474-1.17,10.733-1.504,16.033
			c-1.015,16.125-1.634,20.491-4.05,20.491c-1.254,0-2.185-1.362-3.264-2.942c-1.348-1.976-2.01-2.7-2.529-2.768
			c-0.017-0.002-0.035-0.003-0.052-0.003c-2.097,0-3.048,0.031-4.087,0.065c-1.004,0.032-2.042,0.065-4.278,0.065
			c-1.723,0-3.226-1.521-4.679-2.992c-1.336-1.354-2.424-2.391-3.25-2.391c-0.755,0-1.921,1.072-3.257,2.369
			c-1.979,1.922-3.687,2.993-4.806,3.014c-1.051,0.02-2.018,0.035-2.903,0.035c-5.083,0-6.973-0.604-7.542-2.69
			c1.431,0.875,3.187,1.287,5.438,1.287c0.883,0,1.713-0.062,2.444-0.116c0.566-0.042,1.054-0.078,1.455-0.078l0.1,0.001
			c1.637,0,3.025-1.401,4.038-2.424c0.148-0.15,0.29-0.293,0.427-0.426c1.544-1.499,3.002-2.915,4.605-2.915
			c1.703,0,3.191,1.509,4.631,2.969c1.396,1.414,2.45,2.415,3.297,2.415c2.231,0,3.257-0.033,4.249-0.065
			c0.976-0.032,1.985-0.065,4.123-0.065c1.708,0,2.963,1.839,4.204,3.655c0.336,0.49,0.754,1.101,1.11,1.528
			c0.077,0.092,0.19,0.144,0.308,0.144c0.022,0,0.045-0.002,0.067-0.005c0.141-0.024,0.258-0.122,0.308-0.255
			c0.983-2.645,1.542-11.496,1.951-17.959l0.004-0.065c1.081-17.151,1.834-19.742,3.863-19.742c2.407,0,2.957,5.09,3.726,23.909
			c0.326,7.991,0.773,18.935,1.815,22.401c0.049,0.165,0.198,0.279,0.37,0.284c0.005,0.001,0.009,0.001,0.013,0.001
			c0.167,0,0.317-0.104,0.375-0.262c0.576-1.557,1.027-4.751,1.297-6.66c0.683-4.836,1.053-6.975,2.665-6.975h7.114
			c1.243,0,2.832-1.926,4.235-3.629c1.868-2.266,3.8-4.608,6.2-4.608c2.204,0,4.204,2.265,6.139,4.456
			c1.54,1.743,3.285,3.718,4.594,3.782c0.635,0.032,1.184,0.047,1.679,0.047c2.267,0,3.705-0.287,3.876-1.765
			c-0.047-26.891-21.939-48.768-48.803-48.768c-26.909,0-48.801,21.892-48.801,48.801c0,26.909,21.892,48.801,48.801,48.801h3.062
			c0.033,0,0.065-0.005,0.097-0.013c4.236-1.06,6.523-2.79,9.17-4.794c0.756-0.572,1.538-1.164,2.397-1.762
			c1.94-1.349,3.671-2.033,5.142-2.033c0.547,0,1.046,0.098,1.485,0.29c0.051,0.022,0.105,0.034,0.16,0.034
			c0.098,0,0.194-0.036,0.27-0.104c1.982-1.81,4.51-4.005,7.729-6.713l1.766-1.485c10.528-8.865,26.287-22.134,29.203-22.879
			c-0.674,1.289-5.74,6.589-29.266,26.39c-3.154,2.655-5.822,4.831-7.929,6.466c-0.132,0.103-0.187,0.275-0.137,0.435
			c0.469,1.521-0.582,3.148-3.213,4.978c-1.423,0.989-4.301,1.78-8.118,2.23c-2.58,0.411-6.726,0.902-11.819,0.902
			c-27.98,0-50.744-22.763-50.744-50.743C16.346,34.136,39.109,11.373,67.09,11.373 M67.09,10.973
			c-28.201,0-51.144,22.943-51.144,51.144c0,28.2,22.943,51.143,51.144,51.143c4.569,0,8.702-0.4,11.883-0.908
			c3.437-0.404,6.643-1.156,8.283-2.297c3.378-2.348,3.773-4.104,3.366-5.424c2.021-1.568,4.607-3.67,7.941-6.477
			c12.311-10.361,30.441-25.866,29.452-27.042c-0.05-0.059-0.13-0.087-0.239-0.087c-2.463,0-19.644,14.572-31.432,24.492
			c-3.336,2.807-5.851,4.998-7.74,6.723c-0.455-0.199-1.003-0.323-1.646-0.323c-1.355,0-3.136,0.551-5.37,2.104
			c-3.811,2.648-6.058,5.15-11.437,6.496H67.09c-26.688,0-48.401-21.713-48.401-48.401c0-26.688,21.713-48.401,48.401-48.401
			c26.66,0,48.356,21.668,48.402,48.368c-0.106,0.907-0.833,1.365-3.476,1.365c-0.486,0-1.036-0.016-1.659-0.046
			c-1.14-0.056-2.899-2.047-4.313-3.647c-1.993-2.257-4.055-4.591-6.438-4.591c-2.589,0-4.582,2.417-6.509,4.754
			c-1.279,1.552-2.871,3.483-3.927,3.483h-7.114c-2.026,0-2.395,2.599-3.062,7.318c-0.266,1.881-0.716,5.064-1.275,6.578
			c-1.028-3.422-1.485-14.628-1.8-22.325c-0.79-19.358-1.299-24.271-4.124-24.271c-2.643,0-3.25,4.044-4.263,20.116
			c-0.393,6.212-0.965,15.312-1.931,17.91c-0.353-0.424-0.787-1.061-1.112-1.535c-1.273-1.864-2.591-3.792-4.509-3.792
			c-2.14,0-3.155,0.033-4.136,0.065c-0.99,0.032-2.013,0.065-4.235,0.065c-0.744,0-2.002-1.272-3.013-2.296
			c-1.498-1.519-3.049-3.088-4.916-3.088c-1.767,0-3.282,1.473-4.888,3.031c-1.018,0.988-2.487,2.733-4.183,2.733
			c-0.01,0-0.019,0-0.028,0c-0.023,0-0.047,0-0.072,0c-0.947,0-2.351,0.194-3.899,0.194c-1.984,0-4.205-0.318-5.999-1.771
			c0.339,3.419,2.745,3.975,8.102,3.975c0.888,0,1.857-0.015,2.911-0.035c1.487-0.028,3.494-1.59,5.077-3.127
			c0.926-0.898,2.324-2.256,2.979-2.256c0.721,0,2.019,1.312,2.965,2.271c1.511,1.529,3.073,3.111,4.964,3.111
			c2.268,0,3.313-0.034,4.324-0.066c1.005-0.033,1.952-0.064,4.041-0.064c0.523,0.068,1.69,1.776,2.25,2.597
			c1.143,1.672,2.129,3.116,3.595,3.116c2.766,0,3.399-4.195,4.449-20.866c0.328-5.21,0.79-12.535,1.496-15.978
			c0.756,3.952,1.128,13.066,1.414,20.072c0.837,20.482,1.442,25.634,4.403,25.634c2.769,0,3.398-4.455,4.128-9.616
			c0.232-1.644,0.568-4.026,0.904-4.96h6.556c2.349,0,4.227-2.277,6.044-4.48c1.451-1.761,3.096-3.757,4.392-3.757
			c1.147,0,2.942,2.032,4.384,3.664c2.025,2.293,3.938,4.458,6.233,4.571c0.673,0.034,1.303,0.054,1.891,0.054
			c2.29,0,3.94-0.31,4.991-1.346c1.052-1.038,1.136-2.571,1.129-2.732C118.233,33.916,95.291,10.973,67.09,10.973L67.09,10.973z"/>
	</g>
</g>
</svg>
