<?xml version="1.0" encoding="utf-8"?>
<!-- Generator: Adobe Illustrator 16.0.0, SVG Export Plug-In . SVG Version: 6.00 Build 0)  -->
<!DOCTYPE svg PUBLIC "-//W3C//DTD SVG 1.1//EN" "http://www.w3.org/Graphics/SVG/1.1/DTD/svg11.dtd">
<svg version="1.1" xmlns="http://www.w3.org/2000/svg" xmlns:xlink="http://www.w3.org/1999/xlink" x="0px" y="0px" width="144px"
	 height="144px" viewBox="0 0 144 144" enable-background="new 0 0 144 144" xml:space="preserve">
<g id="Layer_1">
</g>
<g id="Layer_2_copy">
	<g>
		
			<text transform="matrix(1 0 0 1 14.8174 133.0264)" fill="#FFFFFF" stroke="#231F20" stroke-width="0.2" stroke-miterlimit="10" font-family="'Futura-Medium'" font-size="12.0671">LORENZO STUDIOS</text>
	</g>
	<g>
		<path fill="#FFFFFF" d="M67.09,113.16c-28.146,0-51.044-22.898-51.044-51.043c0-28.146,22.898-51.044,51.044-51.044
			c28.146,0,51.044,22.898,51.044,51.044c0,0.02-0.023,1.599-1.1,2.661c-0.936,0.923-2.407,1.317-4.921,1.317
			c-0.586,0-1.215-0.021-1.886-0.054c-2.254-0.111-4.152-2.261-6.163-4.538c-1.456-1.647-3.267-3.698-4.459-3.698
			c-1.343,0-3.002,2.014-4.467,3.791c-1.805,2.188-3.668,4.446-5.969,4.446h-6.626l-0.023,0.066
			c-0.338,0.938-0.666,3.26-0.906,4.955c-0.727,5.138-1.351,9.555-4.032,9.555c-2.876,0-3.47-5.135-4.304-25.539
			c-0.293-7.19-0.659-16.129-1.416-20.087l-0.095-0.496l-0.102,0.495c-0.708,3.453-1.165,10.7-1.498,15.991
			c-1.045,16.597-1.667,20.772-4.35,20.772c-1.412,0-2.385-1.423-3.51-3.07c-0.911-1.335-1.821-2.577-2.321-2.642
			c-0.028,0-0.056,0-0.083,0c-2.048,0-2.984,0.031-3.975,0.063c-1.041,0.033-2.081,0.066-4.321,0.066
			c-1.849,0-3.396-1.566-4.892-3.081c-0.959-0.972-2.271-2.302-3.037-2.302c-0.642,0-1.807,1.08-3.047,2.283
			c-1.18,1.146-3.397,3.069-5.011,3.1c-1.054,0.02-2.022,0.035-2.909,0.035c-5.243,0-7.559-0.514-7.975-3.648
			c1.481,1.122,3.356,1.646,5.872,1.646c0.873,0,1.696-0.061,2.422-0.115c0.562-0.042,1.063-0.079,1.477-0.079c0,0,0,0,0.001,0
			c1.612,0,2.948-1.35,3.924-2.335c0.15-0.151,0.293-0.295,0.428-0.426c1.592-1.546,3.093-3.003,4.818-3.003
			c1.828,0,3.362,1.555,4.845,3.058c1.023,1.036,2.297,2.326,3.084,2.326c2.227,0,3.25-0.033,4.239-0.065
			c0.978-0.032,1.989-0.065,4.132-0.065c1.866,0,3.167,1.905,4.426,3.749c0.34,0.497,0.771,1.126,1.118,1.542l0.11,0.133l0.06-0.162
			c0.968-2.603,1.548-11.792,1.933-17.873c1.012-16.062,1.607-20.088,4.167-20.088c2.739,0,3.237,4.893,4.024,24.174
			c0.308,7.547,0.772,18.918,1.804,22.349l0.086,0.286l0.104-0.28c0.564-1.526,1.013-4.701,1.28-6.598
			c0.659-4.664,1.022-7.232,2.963-7.232h7.114c1.103,0,2.71-1.95,4.001-3.517c1.915-2.322,3.893-4.72,6.435-4.72
			c2.339,0,4.385,2.316,6.363,4.557c1.427,1.614,3.201,3.623,4.384,3.681c0.625,0.031,1.177,0.046,1.664,0.046
			c2.481,0,3.451-0.394,3.575-1.453c-0.046-26.737-21.804-48.48-48.502-48.48c-26.744,0-48.501,21.758-48.501,48.501
			s21.758,48.5,48.501,48.5h3.062c4.201-1.048,6.465-2.761,9.087-4.745c0.758-0.574,1.542-1.168,2.406-1.769
			c1.992-1.385,3.78-2.087,5.313-2.087c0.589,0,1.129,0.106,1.605,0.315l0.06,0.026l0.048-0.044c1.985-1.812,4.516-4.01,7.737-6.721
			l1.765-1.485c11.52-9.699,27.297-22.983,29.603-22.983c0.079,0,0.134,0.017,0.163,0.052c0.477,0.567-4.244,5.694-29.44,26.901
			c-3.157,2.657-5.828,4.836-7.938,6.474l-0.055,0.043l0.021,0.065c0.513,1.662-0.576,3.399-3.327,5.312
			c-1.464,1.018-4.39,1.827-8.238,2.279C76.365,112.667,72.203,113.16,67.09,113.16z"/>
		<path fill="#231F20" d="M67.09,11.173c28.091,0,50.943,22.853,50.943,50.952c0.001,0.015-0.021,1.548-1.069,2.582
			c-0.915,0.903-2.366,1.289-4.851,1.289c-0.542,0-1.157-0.018-1.881-0.054c-2.211-0.109-4.097-2.244-6.094-4.504
			c-1.545-1.749-3.296-3.731-4.533-3.731c-1.39,0-3.065,2.034-4.548,3.832c-1.786,2.166-3.634,4.406-5.888,4.406h-6.556h-0.141
			l-0.048,0.132c-0.341,0.948-0.67,3.275-0.914,5c-0.716,5.067-1.335,9.443-3.93,9.443c-2.771,0-3.386-5.422-4.204-25.448
			c-0.293-7.187-0.658-16.13-1.417-20.096l-0.189-0.991l-0.203,0.989c-0.71,3.46-1.167,10.711-1.5,16.005
			c-1.024,16.272-1.669,20.679-4.25,20.679c-1.359,0-2.318-1.402-3.43-3.029c-1.065-1.562-1.879-2.616-2.415-2.684
			c-2.094,0-3.043,0.032-4.082,0.066c-1.005,0.032-2.045,0.065-4.283,0.065c-1.807,0-3.339-1.551-4.821-3.052
			c-1.259-1.275-2.361-2.331-3.107-2.331c-0.679,0-1.861,1.093-3.118,2.312c-2.017,1.958-3.771,3.048-4.942,3.07
			c-1.053,0.02-2.021,0.036-2.907,0.036c-5.043,0-7.345-0.476-7.84-3.326c1.468,1.037,3.307,1.522,5.737,1.522
			c0.876,0,1.701-0.061,2.43-0.115c0.569-0.042,1.062-0.079,1.47-0.079l0.1,0c1.554,0,2.908-1.367,3.896-2.365
			c0.149-0.151,0.292-0.294,0.43-0.428c1.574-1.528,3.061-2.971,4.745-2.971c1.786,0,3.305,1.54,4.774,3.028
			c1.09,1.104,2.326,2.355,3.155,2.355c2.229,0,3.252-0.034,4.242-0.066c0.977-0.032,1.987-0.065,4.129-0.065
			c1.813,0,3.1,1.883,4.369,3.742c0.333,0.487,0.749,1.093,1.098,1.513l0.221,0.266l0.121-0.324
			c0.973-2.617,1.531-11.452,1.938-17.902l0.004-0.065c0.988-15.682,1.605-19.929,4.063-19.929c2.596,0,3.139,4.84,3.925,24.101
			c0.308,7.53,0.772,18.91,1.808,22.352l0.172,0.572l0.207-0.561c0.568-1.537,1.018-4.718,1.286-6.619
			c0.651-4.608,1.01-7.146,2.863-7.146h7.114c1.149,0,2.705-1.888,4.081-3.556c1.897-2.302,3.859-4.681,6.354-4.681
			c2.294,0,4.324,2.299,6.289,4.523c1.513,1.713,3.229,3.655,4.453,3.715c0.632,0.031,1.178,0.047,1.669,0.047
			c2.547,0,3.542-0.418,3.676-1.565c-0.046-26.78-21.85-48.568-48.603-48.568c-26.799,0-48.602,21.803-48.602,48.602
			c0,26.798,21.803,48.601,48.602,48.601l3.111-0.006c4.197-1.05,6.468-2.77,9.098-4.761c0.758-0.573,1.542-1.166,2.404-1.766
			c1.975-1.373,3.743-2.068,5.256-2.068c0.574,0,1.102,0.103,1.565,0.307l0.119,0.052l0.096-0.088
			c1.984-1.811,4.514-4.008,7.734-6.717l1.765-1.486c10.859-9.143,27.269-22.959,29.538-22.959c0.041,0,0.064,0.006,0.074,0.006
			c0.002,0,0.004,0,0.004-0.002c0.154,0.789-4.834,6.079-29.42,26.771c-3.156,2.657-5.826,4.835-7.936,6.472l-0.108,0.085
			l0.04,0.132c0.498,1.615-0.577,3.316-3.289,5.201c-1.45,1.008-4.359,1.812-8.2,2.264c-2.588,0.413-6.745,0.905-11.852,0.905
			c-28.091,0-50.944-22.853-50.944-50.943C16.146,34.026,38.999,11.173,67.09,11.173 M67.09,10.973
			c-28.201,0-51.144,22.943-51.144,51.144c0,28.2,22.943,51.143,51.144,51.143c4.569,0,8.702-0.4,11.883-0.908
			c3.437-0.404,6.643-1.156,8.283-2.297c3.378-2.348,3.773-4.104,3.366-5.424c2.021-1.568,4.607-3.67,7.941-6.477
			c12.311-10.361,30.441-25.866,29.452-27.042c-0.05-0.059-0.13-0.087-0.239-0.087c-2.463,0-19.644,14.572-31.432,24.492
			c-3.336,2.807-5.851,4.998-7.74,6.723c-0.455-0.199-1.003-0.323-1.646-0.323c-1.355,0-3.136,0.551-5.37,2.104
			c-3.811,2.648-6.058,5.15-11.437,6.496H67.09c-26.688,0-48.401-21.713-48.401-48.401c0-26.688,21.713-48.401,48.401-48.401
			c26.66,0,48.356,21.668,48.402,48.368c-0.106,0.907-0.833,1.365-3.476,1.365c-0.486,0-1.036-0.016-1.659-0.046
			c-1.14-0.056-2.899-2.047-4.313-3.647c-1.993-2.257-4.055-4.591-6.438-4.591c-2.589,0-4.582,2.417-6.509,4.754
			c-1.279,1.552-2.871,3.483-3.927,3.483h-7.114c-2.026,0-2.395,2.599-3.062,7.318c-0.266,1.881-0.716,5.064-1.275,6.578
			c-1.028-3.422-1.485-14.628-1.8-22.325c-0.79-19.358-1.299-24.271-4.124-24.271c-2.643,0-3.25,4.044-4.263,20.116
			c-0.393,6.212-0.965,15.312-1.931,17.91c-0.353-0.424-0.787-1.061-1.112-1.535c-1.273-1.864-2.591-3.792-4.509-3.792
			c-2.14,0-3.155,0.033-4.136,0.065c-0.99,0.032-2.013,0.065-4.235,0.065c-0.744,0-2.002-1.272-3.013-2.296
			c-1.498-1.519-3.049-3.088-4.916-3.088c-1.767,0-3.282,1.473-4.888,3.031c-1.018,0.988-2.487,2.733-4.183,2.733
			c-0.01,0-0.019,0-0.028,0c-0.023,0-0.048,0-0.072,0c-0.947,0-2.351,0.194-3.899,0.194c-1.984,0-4.205-0.318-5.999-1.771
			c0.339,3.419,2.745,3.975,8.102,3.975c0.888,0,1.857-0.015,2.911-0.035c1.487-0.028,3.494-1.59,5.077-3.127
			c0.926-0.898,2.324-2.256,2.979-2.256c0.721,0,2.019,1.312,2.965,2.271c1.511,1.529,3.073,3.111,4.964,3.111
			c2.268,0,3.313-0.034,4.324-0.066c1.005-0.033,1.952-0.064,4.041-0.064c0.523,0.068,1.69,1.776,2.25,2.597
			c1.143,1.672,2.129,3.116,3.595,3.116c2.766,0,3.399-4.195,4.449-20.866c0.328-5.21,0.79-12.535,1.496-15.978
			c0.756,3.952,1.128,13.066,1.414,20.072c0.837,20.482,1.442,25.634,4.403,25.634c2.769,0,3.398-4.455,4.128-9.616
			c0.232-1.644,0.568-4.026,0.904-4.96h6.556c2.349,0,4.227-2.277,6.044-4.48c1.451-1.761,3.096-3.757,4.392-3.757
			c1.147,0,2.942,2.032,4.384,3.664c2.025,2.293,3.938,4.458,6.233,4.571c0.673,0.034,1.303,0.054,1.891,0.054
			c2.29,0,3.94-0.31,4.991-1.346c1.052-1.038,1.136-2.571,1.129-2.732C118.233,33.916,95.291,10.973,67.09,10.973L67.09,10.973z"/>
	</g>
</g>
</svg>
