<?xml version="1.0" encoding="utf-8"?>
<!-- Generator: Adobe Illustrator 16.0.0, SVG Export Plug-In . SVG Version: 6.00 Build 0)  -->
<!DOCTYPE svg PUBLIC "-//W3C//DTD SVG 1.1//EN" "http://www.w3.org/Graphics/SVG/1.1/DTD/svg11.dtd">
<svg version="1.1" id="Layer_1" xmlns="http://www.w3.org/2000/svg" xmlns:xlink="http://www.w3.org/1999/xlink" x="0px" y="0px"
	 viewBox="10 22 470 230" enable-background="new 0 0 450 100" xml:space="preserve">
<g>
	<g>
		<path d="M87.75,100c-6.25,6.25-10.698,19.293-38.083,20.668c-21.67,1.087-26.173-29.372-15-53c8.904-18.831,28.514-37.31,45-20
			c3.333,3.5,6.166-1.834,2.833-6.167c-2.817-3.663-12.67-18.167-36.17-2.334c-8.792,5.924-16.828,18.997-20.245,28.746
			c-3.11,8.875-6.075,22.052-4.75,31.25c1.655,11.489,3.598,18.606,12.498,25.004c1.29,0.967,12.167,10.666,37.333,0.332
			c6.218-2.553,15.083-8.5,20.583-16.75C97.34,99.365,91.06,96.69,87.75,100z"/>
	</g>
</g>
<g>
	<g>
		<path d="M181.625,150.5c-28.125-0.875-51.375-8.5-64.125-13.125c0,0,7.625-27.125,10.5-38.125
			c0.974-3.726,11.125-48.625,11.125-48.625s19.625-3.25,25.125-13c4.639-8.223-2.544-17.818-13-14.875
			c-16.875,4.75-15.04,20.176-17.875,20.5C97.25,47.375,90.76,32.358,88.25,35c-2.375,2.5,5.75,18.875,41.875,16.5
			c1.006-0.066-19.156,84.267-21,83.625c-2.875-1-17.271-5.846-30.625-4.5c-16.125,1.625-23.125,14.875-21.125,24
			c2.014,9.188,13.656,13.796,18.875,14.25c23,2,34.375-17.5,38-24.25c0.491,0.163,56.527,19.32,71.375,12.75
			C187.115,156.716,188.564,150.716,181.625,150.5z M148.938,32.75c3.928-2.619,6.458-4.448,8.562-2.188
			c1.688,1.812-2.438,5.938-5.5,7.312c-5.72,2.568-9.5,3.188-9.5,3.188S145,35.375,148.938,32.75z M88.5,159.125
			c-9.208,2.455-20.375,3.25-22.75-3c-1.823-4.798,0.375-16,19.125-17.125c11.091-0.665,20,3.5,20,3.5S99.75,156.125,88.5,159.125z"
			/>
	</g>
</g>
<g>
	<g>
		<path d="M418.834,91.333c-29.667,8.167-50.167,7.5-50.167,7.5S366.167,90,353,90.334c-17.083,0.434-17.844,11.493-24.165,12
			c-2.083,0.167-2.198-8.973-9.084-10.167c-6.25-1.083-10.486,3.708-11.75,3.167c-0.583-0.25-0.143-7.86-8.833-8.667
			c-8.084-0.75-16.503,19.583-21.003,19.417c-2.917-0.108-1.417-20-10.667-20c-6.5,0-9,6.833-10.333,6.75
			c-1.002-0.062-1.601-8.214-8.333-7.667c-5.813,0.473-10.417,12.167-14.251,20.583c-2.467,5.415-7.394,3.374-7.394,3.374
			s9.528-9.015,5.811-18.124c-5-12.25-14.5-7.5-17.334,0.917c-1.887,5.603,1.084,13.334,1.084,13.334
			c0.333-0.167-6.805,5.336-14.251,4.583c-6.584-0.667-5.501-10.083,2.75-17.167c0.493-0.424-2.417-8.917-5.75-7.583
			c-9.491,3.796-5.751-2.417-11.622-2.397c-4.5,0.015-1.913,3.384-5.5,5.125c-1.814,0.88-6.628,2.772-8.212,1.606
			c-1.566-1.153-3.869-2.969-5.416-3.25c-1.249-0.227-2.418,1.5-2.418,1.5c-0.749-0.333-16.249-3.916-17.916,14.667
			c-0.724,8.069,6.418,14.499,13.837,14.665c7.32,0.164,11.024-4.271,13-7.062c2.875-4.062,1.681-11.396,1.938-11.375
			c5.938,0.5,12.312-4.812,12.312-4.812l2.75,1.188c-0.938,3.125-6.938,18.25,9.5,23.062c8.107,2.374,17.562-5.188,18.688-5.125
			c0.874,0.048,4.723,5.901,13.375,4.5c8.875-1.438,12.01-23.335,15.875-23.062c3.366,0.237-1.666,20.663,7.125,19.25
			c3.5-0.562,0.778-4.321,3.125-10.125c1.188-2.938,4.751-8.946,7.625-8.562c5.625,0.75-1.964,19.748,9.438,20.812
			c11.375,1.062,17.751-20.362,22.25-20.25c5,0.125-4.625,14.625,3.312,17.5c4.909,1.778,7.37-11.725,16.312-11.938
			c2.625-0.062,4.803,6.362,3.626,7.083c-9.25,5.667-46.519,59.641-13.667,68.75c25.25,7.001,23.311-62.696,22.75-66.333
			c-0.167-1.083,3.75-2,3.75-2s3.846,13.729,17.354,14.562c16.563,1.021,16.229-15.312,16.229-15.312s32.83-2.008,53.417-9.084
			C427.667,96.833,423.628,90.014,418.834,91.333z M166.998,106.833c-2.544,2.285-6.586,3.252-9.503,0.919
			c-3.142-2.512-0.458-8.087,2.335-10.333c3.833-3.083,9.668-1.253,9.668-1.253S171.081,103.167,166.998,106.833z M222.662,100.836
			c0,0-0.838-3.054,0.167-5.667c0.626-1.627,1.349-3.387,3.213-2.998c2.008,0.418,1.284,3.079,0.537,4.748
			C225.553,99.208,222.662,100.836,222.662,100.836z M322.41,148.835c-1.764,6.51-7.417,23.25-15.083,20.583
			c-7.377-2.566-3.738-19.103-1-26c4.333-10.916,18-26.166,18-26.166S325.244,138.389,322.41,148.835z M352.911,114.417
			c-6.667-0.052-10.151-3.682-10.084-7.417c0.083-4.583,4.598-6.616,9.583-7c7.583-0.583,9.417,5.583,9.417,5.583
			S363.577,114.501,352.911,114.417z"/>
	</g>
</g>
</svg>
